<svg width="104" height="30" viewBox="0 0 104 30" fill="none" xmlns="http://www.w3.org/2000/svg">
<rect width="104" height="30" rx="15" fill="#FFDEDE"/>
<path d="M18.148 9.57H24.952V10.83H19.534V14.134H24.672V15.408H19.534V18.74H24.952V20H18.148V9.57ZM28.2902 16.22L25.6582 12.454H27.2262L29.4802 15.73H28.6822L30.9082 12.454H32.4902L29.8582 16.22L32.4762 20H30.9082L28.6822 16.724H29.4662L27.2402 20H25.6442L28.2902 16.22ZM33.6346 9.402H34.9506V13.924L34.7126 13.798C34.8993 13.322 35.198 12.9533 35.6086 12.692C36.0286 12.4213 36.5186 12.286 37.0786 12.286C37.6106 12.286 38.0913 12.4073 38.5206 12.65C38.95 12.8927 39.286 13.2333 39.5286 13.672C39.7806 14.1013 39.9066 14.582 39.9066 15.114V20H38.5906V15.534C38.5906 15.1327 38.5113 14.7827 38.3526 14.484C38.2033 14.1853 37.9886 13.9567 37.7086 13.798C37.438 13.6393 37.13 13.56 36.7846 13.56C36.2526 13.56 35.814 13.742 35.4686 14.106C35.1233 14.4607 34.9506 14.9367 34.9506 15.534V20H33.6346V9.402ZM43.968 20.168C43.4827 20.168 43.044 20.0793 42.652 19.902C42.2694 19.7153 41.9707 19.4633 41.756 19.146C41.5414 18.8193 41.434 18.446 41.434 18.026C41.434 17.41 41.6394 16.892 42.05 16.472C42.4607 16.052 43.0814 15.7767 43.912 15.646L46.698 15.184V16.276L44.206 16.71C43.73 16.7847 43.38 16.934 43.156 17.158C42.932 17.3727 42.82 17.648 42.82 17.984C42.82 18.292 42.9414 18.5487 43.184 18.754C43.436 18.9593 43.7487 19.062 44.122 19.062C44.5794 19.062 44.9854 18.964 45.34 18.768C45.704 18.572 45.984 18.3013 46.18 17.956C46.376 17.6013 46.474 17.2187 46.474 16.808V14.876C46.474 14.4653 46.32 14.134 46.012 13.882C45.7134 13.6207 45.3214 13.49 44.836 13.49C44.4067 13.49 44.0287 13.602 43.702 13.826C43.3754 14.0407 43.128 14.33 42.96 14.694L41.826 14.106C42.0407 13.5833 42.4327 13.1493 43.002 12.804C43.5714 12.4587 44.192 12.286 44.864 12.286C45.4334 12.286 45.9374 12.398 46.376 12.622C46.824 12.8367 47.1694 13.1447 47.412 13.546C47.664 13.938 47.79 14.3813 47.79 14.876V20H46.516V18.572L46.754 18.67C46.5114 19.1273 46.1427 19.4913 45.648 19.762C45.1534 20.0327 44.5934 20.168 43.968 20.168ZM52.4828 20.168C51.9414 20.168 51.4514 20.042 51.0128 19.79C50.5834 19.538 50.2474 19.1833 50.0048 18.726C49.7621 18.2687 49.6408 17.7507 49.6408 17.172V12.454H50.9568V17.032C50.9568 17.592 51.1248 18.0447 51.4608 18.39C51.7968 18.7353 52.2354 18.908 52.7768 18.908C53.3181 18.908 53.7568 18.7307 54.0928 18.376C54.4288 18.012 54.5968 17.5267 54.5968 16.92V12.454H55.9128V20H54.6388V18.53L54.8348 18.656C54.6574 19.132 54.3588 19.5053 53.9388 19.776C53.5281 20.0373 53.0428 20.168 52.4828 20.168ZM60.7022 20.168C59.9462 20.1773 59.2835 20.0047 58.7142 19.65C58.1449 19.286 57.7342 18.7913 57.4822 18.166L58.5322 17.634C58.7469 18.082 59.0455 18.432 59.4282 18.684C59.8109 18.936 60.2262 19.0573 60.6742 19.048C61.0849 19.0387 61.4209 18.936 61.6822 18.74C61.9529 18.5347 62.0835 18.2733 62.0742 17.956C62.0649 17.6573 61.9389 17.4147 61.6962 17.228C61.4535 17.0413 61.1969 16.934 60.9262 16.906L59.7922 16.738C59.1295 16.57 58.6302 16.2947 58.2942 15.912C57.9582 15.5293 57.7855 15.0813 57.7762 14.568C57.7669 14.1293 57.8695 13.742 58.0842 13.406C58.3082 13.0607 58.6162 12.7947 59.0082 12.608C59.4002 12.412 59.8435 12.3047 60.3382 12.286C61.0009 12.2673 61.5982 12.426 62.1302 12.762C62.6715 13.0887 63.0589 13.546 63.2922 14.134L62.2422 14.666C62.0649 14.274 61.8035 13.9707 61.4582 13.756C61.1222 13.532 60.7489 13.4247 60.3382 13.434C59.9649 13.4433 59.6615 13.5413 59.4282 13.728C59.2042 13.9147 59.0969 14.162 59.1062 14.47C59.1155 14.7593 59.2275 14.9927 59.4422 15.17C59.6569 15.3473 59.8949 15.4593 60.1562 15.506L61.4022 15.674C62.0182 15.842 62.4989 16.1267 62.8442 16.528C63.1989 16.92 63.3809 17.3773 63.3902 17.9C63.3995 18.32 63.2922 18.7027 63.0682 19.048C62.8535 19.384 62.5362 19.65 62.1162 19.846C61.7055 20.042 61.2342 20.1493 60.7022 20.168ZM68.1326 20.084C67.3953 20.084 66.8259 19.874 66.4246 19.454C66.0233 19.034 65.8226 18.4413 65.8226 17.676V13.7H64.4646V12.454H64.7446C65.0713 12.454 65.3326 12.356 65.5286 12.16C65.7246 11.9547 65.8226 11.6793 65.8226 11.334V10.55H67.1386V12.454H68.8326V13.7H67.1386V17.634C67.1386 18.0447 67.2366 18.3573 67.4326 18.572C67.6286 18.7867 67.9506 18.894 68.3986 18.894C68.5853 18.894 68.7579 18.88 68.9166 18.852V20.014C68.7019 20.0607 68.4406 20.084 68.1326 20.084ZM73.8159 20.168C73.1066 20.168 72.4626 19.9953 71.8839 19.65C71.3053 19.3047 70.8479 18.8333 70.5119 18.236C70.1853 17.6293 70.0219 16.9527 70.0219 16.206C70.0219 15.4687 70.1806 14.8013 70.4979 14.204C70.8246 13.6067 71.2679 13.14 71.8279 12.804C72.3879 12.4587 73.0133 12.286 73.7039 12.286C74.4133 12.286 75.0339 12.454 75.5659 12.79C76.1073 13.126 76.5226 13.574 76.8119 14.134C77.1013 14.6847 77.2459 15.2773 77.2459 15.912C77.2459 16.1733 77.2226 16.4113 77.1759 16.626H70.9879V15.492H76.4199L75.7899 15.996C75.8739 15.5293 75.8319 15.1 75.6639 14.708C75.4959 14.316 75.2346 14.008 74.8799 13.784C74.5253 13.56 74.1333 13.448 73.7039 13.448C73.2653 13.448 72.8593 13.5647 72.4859 13.798C72.1219 14.022 71.8419 14.344 71.6459 14.764C71.4499 15.184 71.3706 15.6693 71.4079 16.22C71.3706 16.7613 71.4546 17.242 71.6599 17.662C71.8746 18.0727 72.1733 18.3947 72.5559 18.628C72.9386 18.8613 73.3633 18.978 73.8299 18.978C74.3059 18.978 74.7166 18.866 75.0619 18.642C75.4166 18.418 75.7106 18.1147 75.9439 17.732L77.0359 18.292C76.7933 18.8333 76.3826 19.2813 75.8039 19.636C75.2253 19.9907 74.5626 20.168 73.8159 20.168ZM82.3735 20.168C81.6642 20.168 81.0249 19.9953 80.4555 19.65C79.8862 19.3047 79.4382 18.8333 79.1115 18.236C78.7849 17.6387 78.6215 16.9713 78.6215 16.234C78.6215 15.4967 78.7849 14.8293 79.1115 14.232C79.4382 13.6253 79.8862 13.1493 80.4555 12.804C81.0249 12.4587 81.6642 12.286 82.3735 12.286C82.9895 12.286 83.5402 12.4167 84.0255 12.678C84.5109 12.9393 84.8982 13.2987 85.1875 13.756L84.9775 14.078V9.402H86.2935V20H85.0195V18.39L85.1875 18.614C84.9262 19.1087 84.5482 19.4913 84.0535 19.762C83.5589 20.0327 82.9989 20.168 82.3735 20.168ZM82.4855 18.908C82.9429 18.908 83.3629 18.7913 83.7455 18.558C84.1282 18.3247 84.4269 18.0027 84.6415 17.592C84.8655 17.1813 84.9775 16.7287 84.9775 16.234C84.9775 15.73 84.8655 15.2773 84.6415 14.876C84.4269 14.4653 84.1282 14.1433 83.7455 13.91C83.3629 13.6767 82.9429 13.56 82.4855 13.56C82.0189 13.56 81.5942 13.6767 81.2115 13.91C80.8382 14.1433 80.5442 14.4653 80.3295 14.876C80.1149 15.2773 80.0075 15.73 80.0075 16.234C80.0075 16.738 80.1149 17.1953 80.3295 17.606C80.5442 18.0073 80.8382 18.3247 81.2115 18.558C81.5942 18.7913 82.0189 18.908 82.4855 18.908Z" fill="#FC3F3F"/>
</svg>
