<svg width="104" height="30" viewBox="0 0 104 30" fill="none" xmlns="http://www.w3.org/2000/svg">
<rect width="104" height="30" rx="15" fill="#E1FFE0"/>
<path d="M24.148 9.57H25.534V18.74H30.112V20H24.148V9.57ZM31.4862 12.454H32.8022V20H31.4862V12.454ZM32.1582 11.25C31.9155 11.25 31.7195 11.1753 31.5702 11.026C31.4209 10.8767 31.3462 10.6807 31.3462 10.438C31.3462 10.1953 31.4209 9.99933 31.5702 9.85C31.7195 9.70067 31.9155 9.626 32.1582 9.626C32.4009 9.626 32.5969 9.70067 32.7462 9.85C32.8955 9.99933 32.9702 10.1953 32.9702 10.438C32.9702 10.6807 32.8955 10.8767 32.7462 11.026C32.5969 11.1753 32.4009 11.25 32.1582 11.25ZM33.9548 12.454H35.4108L37.7768 18.838H37.2728L39.6528 12.454H41.1088L38.1408 20H36.9088L33.9548 12.454ZM45.6089 20.168C44.8996 20.168 44.2556 19.9953 43.6769 19.65C43.0982 19.3047 42.6409 18.8333 42.3049 18.236C41.9782 17.6293 41.8149 16.9527 41.8149 16.206C41.8149 15.4687 41.9736 14.8013 42.2909 14.204C42.6176 13.6067 43.0609 13.14 43.6209 12.804C44.1809 12.4587 44.8062 12.286 45.4969 12.286C46.2062 12.286 46.8269 12.454 47.3589 12.79C47.9002 13.126 48.3156 13.574 48.6049 14.134C48.8942 14.6847 49.0389 15.2773 49.0389 15.912C49.0389 16.1733 49.0156 16.4113 48.9689 16.626H42.7809V15.492H48.2129L47.5829 15.996C47.6669 15.5293 47.6249 15.1 47.4569 14.708C47.2889 14.316 47.0276 14.008 46.6729 13.784C46.3182 13.56 45.9262 13.448 45.4969 13.448C45.0582 13.448 44.6522 13.5647 44.2789 13.798C43.9149 14.022 43.6349 14.344 43.4389 14.764C43.2429 15.184 43.1636 15.6693 43.2009 16.22C43.1636 16.7613 43.2476 17.242 43.4529 17.662C43.6676 18.0727 43.9662 18.3947 44.3489 18.628C44.7316 18.8613 45.1562 18.978 45.6229 18.978C46.0989 18.978 46.5096 18.866 46.8549 18.642C47.2096 18.418 47.5036 18.1147 47.7369 17.732L48.8289 18.292C48.5862 18.8333 48.1756 19.2813 47.5969 19.636C47.0182 19.9907 46.3556 20.168 45.6089 20.168ZM53.1424 12.454H54.4304V13.924L54.2204 13.798C54.4071 13.322 54.7058 12.9533 55.1164 12.692C55.5364 12.4213 56.0264 12.286 56.5864 12.286C57.1184 12.286 57.5991 12.4073 58.0284 12.65C58.4578 12.8927 58.7938 13.2333 59.0364 13.672C59.2884 14.1013 59.4144 14.582 59.4144 15.114V20H58.0984V15.534C58.0984 15.1233 58.0238 14.7733 57.8744 14.484C57.7251 14.1853 57.5104 13.9567 57.2304 13.798C56.9598 13.6393 56.6471 13.56 56.2924 13.56C55.7511 13.56 55.3078 13.7373 54.9624 14.092C54.6264 14.4467 54.4584 14.9273 54.4584 15.534V20H53.1424V12.454ZM64.8339 20.168C64.1245 20.168 63.4712 20 62.8739 19.664C62.2859 19.3187 61.8145 18.8427 61.4599 18.236C61.1145 17.6293 60.9419 16.9573 60.9419 16.22C60.9419 15.4733 61.1099 14.806 61.4459 14.218C61.7912 13.6207 62.2625 13.1493 62.8599 12.804C63.4572 12.4587 64.1199 12.286 64.8479 12.286C65.5665 12.286 66.2199 12.4587 66.8079 12.804C67.4052 13.14 67.8719 13.6113 68.2079 14.218C68.5532 14.8153 68.7259 15.4827 68.7259 16.22C68.7259 16.976 68.5485 17.6527 68.1939 18.25C67.8485 18.8473 67.3772 19.3187 66.7799 19.664C66.1919 20 65.5432 20.168 64.8339 20.168ZM64.8339 18.908C65.3005 18.908 65.7252 18.7913 66.1079 18.558C66.4905 18.3247 66.7892 18.0027 67.0039 17.592C67.2279 17.1813 67.3399 16.724 67.3399 16.22C67.3399 15.716 67.2279 15.2633 67.0039 14.862C66.7892 14.4513 66.4905 14.134 66.1079 13.91C65.7252 13.6767 65.3052 13.56 64.8479 13.56C64.3812 13.56 63.9519 13.6767 63.5599 13.91C63.1772 14.134 62.8739 14.4513 62.6499 14.862C62.4352 15.2633 62.3279 15.716 62.3279 16.22C62.3279 16.724 62.4352 17.1813 62.6499 17.592C62.8739 18.0027 63.1772 18.3247 63.5599 18.558C63.9425 18.7913 64.3672 18.908 64.8339 18.908ZM69.4333 12.454H70.8753L72.9333 18.768L72.4293 18.754L74.4453 12.454H75.6773L77.6933 18.754L77.1893 18.768L79.2613 12.454H80.6893L78.0993 20H76.8533L74.8653 13.7H75.2573L73.2693 20H72.0233L69.4333 12.454Z" fill="#317C2E"/>
</svg>
