<svg width="104" height="30" viewBox="0 0 104 30" fill="none" xmlns="http://www.w3.org/2000/svg">
<rect width="104" height="30" rx="15" fill="#FFF8E0"/>
<path d="M28.148 9.57H31.844C32.5347 9.57 33.1413 9.70067 33.664 9.962C34.196 10.2233 34.6067 10.6013 34.896 11.096C35.1853 11.5813 35.33 12.1507 35.33 12.804C35.33 13.448 35.1807 14.0127 34.882 14.498C34.5927 14.9833 34.1867 15.3567 33.664 15.618C33.1413 15.8793 32.5347 16.01 31.844 16.01H29.534V20H28.148V9.57ZM31.886 14.75C32.2967 14.75 32.656 14.6707 32.964 14.512C33.272 14.3533 33.51 14.1247 33.678 13.826C33.8553 13.5273 33.944 13.182 33.944 12.79C33.944 12.398 33.8553 12.0527 33.678 11.754C33.51 11.4553 33.272 11.2267 32.964 11.068C32.656 10.9093 32.2967 10.83 31.886 10.83H29.534V14.75H31.886ZM38.5462 20.168C38.0608 20.168 37.6222 20.0793 37.2302 19.902C36.8475 19.7153 36.5488 19.4633 36.3342 19.146C36.1195 18.8193 36.0122 18.446 36.0122 18.026C36.0122 17.41 36.2175 16.892 36.6282 16.472C37.0388 16.052 37.6595 15.7767 38.4902 15.646L41.2762 15.184V16.276L38.7842 16.71C38.3082 16.7847 37.9582 16.934 37.7342 17.158C37.5102 17.3727 37.3982 17.648 37.3982 17.984C37.3982 18.292 37.5195 18.5487 37.7622 18.754C38.0142 18.9593 38.3268 19.062 38.7002 19.062C39.1575 19.062 39.5635 18.964 39.9182 18.768C40.2822 18.572 40.5622 18.3013 40.7582 17.956C40.9542 17.6013 41.0522 17.2187 41.0522 16.808V14.876C41.0522 14.4653 40.8982 14.134 40.5902 13.882C40.2915 13.6207 39.8995 13.49 39.4142 13.49C38.9848 13.49 38.6068 13.602 38.2802 13.826C37.9535 14.0407 37.7062 14.33 37.5382 14.694L36.4042 14.106C36.6188 13.5833 37.0108 13.1493 37.5802 12.804C38.1495 12.4587 38.7702 12.286 39.4422 12.286C40.0115 12.286 40.5155 12.398 40.9542 12.622C41.4022 12.8367 41.7475 13.1447 41.9902 13.546C42.2422 13.938 42.3682 14.3813 42.3682 14.876V20H41.0942V18.572L41.3322 18.67C41.0895 19.1273 40.7208 19.4913 40.2262 19.762C39.7315 20.0327 39.1715 20.168 38.5462 20.168ZM47.0609 20.168C46.5196 20.168 46.0296 20.042 45.5909 19.79C45.1616 19.538 44.8256 19.1833 44.5829 18.726C44.3402 18.2687 44.2189 17.7507 44.2189 17.172V12.454H45.5349V17.032C45.5349 17.592 45.7029 18.0447 46.0389 18.39C46.3749 18.7353 46.8136 18.908 47.3549 18.908C47.8962 18.908 48.3349 18.7307 48.6709 18.376C49.0069 18.012 49.1749 17.5267 49.1749 16.92V12.454H50.4909V20H49.2169V18.53L49.4129 18.656C49.2356 19.132 48.9369 19.5053 48.5169 19.776C48.1062 20.0373 47.6209 20.168 47.0609 20.168ZM55.2803 20.168C54.5243 20.1773 53.8617 20.0047 53.2923 19.65C52.723 19.286 52.3123 18.7913 52.0603 18.166L53.1103 17.634C53.325 18.082 53.6237 18.432 54.0063 18.684C54.389 18.936 54.8043 19.0573 55.2523 19.048C55.663 19.0387 55.999 18.936 56.2603 18.74C56.531 18.5347 56.6617 18.2733 56.6523 17.956C56.643 17.6573 56.517 17.4147 56.2743 17.228C56.0317 17.0413 55.775 16.934 55.5043 16.906L54.3703 16.738C53.7077 16.57 53.2083 16.2947 52.8723 15.912C52.5363 15.5293 52.3637 15.0813 52.3543 14.568C52.345 14.1293 52.4477 13.742 52.6623 13.406C52.8863 13.0607 53.1943 12.7947 53.5863 12.608C53.9783 12.412 54.4217 12.3047 54.9163 12.286C55.579 12.2673 56.1763 12.426 56.7083 12.762C57.2497 13.0887 57.637 13.546 57.8703 14.134L56.8203 14.666C56.643 14.274 56.3817 13.9707 56.0363 13.756C55.7003 13.532 55.327 13.4247 54.9163 13.434C54.543 13.4433 54.2397 13.5413 54.0063 13.728C53.7823 13.9147 53.675 14.162 53.6843 14.47C53.6937 14.7593 53.8057 14.9927 54.0203 15.17C54.235 15.3473 54.473 15.4593 54.7343 15.506L55.9803 15.674C56.5963 15.842 57.077 16.1267 57.4223 16.528C57.777 16.92 57.959 17.3773 57.9683 17.9C57.9777 18.32 57.8703 18.7027 57.6463 19.048C57.4317 19.384 57.1143 19.65 56.6943 19.846C56.2837 20.042 55.8123 20.1493 55.2803 20.168ZM63.1167 20.168C62.4074 20.168 61.7634 19.9953 61.1847 19.65C60.6061 19.3047 60.1487 18.8333 59.8127 18.236C59.4861 17.6293 59.3227 16.9527 59.3227 16.206C59.3227 15.4687 59.4814 14.8013 59.7987 14.204C60.1254 13.6067 60.5687 13.14 61.1287 12.804C61.6887 12.4587 62.3141 12.286 63.0047 12.286C63.7141 12.286 64.3347 12.454 64.8667 12.79C65.4081 13.126 65.8234 13.574 66.1127 14.134C66.4021 14.6847 66.5467 15.2773 66.5467 15.912C66.5467 16.1733 66.5234 16.4113 66.4767 16.626H60.2887V15.492H65.7207L65.0907 15.996C65.1747 15.5293 65.1327 15.1 64.9647 14.708C64.7967 14.316 64.5354 14.008 64.1807 13.784C63.8261 13.56 63.4341 13.448 63.0047 13.448C62.5661 13.448 62.1601 13.5647 61.7867 13.798C61.4227 14.022 61.1427 14.344 60.9467 14.764C60.7507 15.184 60.6714 15.6693 60.7087 16.22C60.6714 16.7613 60.7554 17.242 60.9607 17.662C61.1754 18.0727 61.4741 18.3947 61.8567 18.628C62.2394 18.8613 62.6641 18.978 63.1307 18.978C63.6067 18.978 64.0174 18.866 64.3627 18.642C64.7174 18.418 65.0114 18.1147 65.2447 17.732L66.3367 18.292C66.0941 18.8333 65.6834 19.2813 65.1047 19.636C64.5261 19.9907 63.8634 20.168 63.1167 20.168ZM71.6743 20.168C70.965 20.168 70.3257 19.9953 69.7563 19.65C69.187 19.3047 68.739 18.8333 68.4123 18.236C68.0857 17.6387 67.9223 16.9713 67.9223 16.234C67.9223 15.4967 68.0857 14.8293 68.4123 14.232C68.739 13.6253 69.187 13.1493 69.7563 12.804C70.3257 12.4587 70.965 12.286 71.6743 12.286C72.2903 12.286 72.841 12.4167 73.3263 12.678C73.8117 12.9393 74.199 13.2987 74.4883 13.756L74.2783 14.078V9.402H75.5943V20H74.3203V18.39L74.4883 18.614C74.227 19.1087 73.849 19.4913 73.3543 19.762C72.8597 20.0327 72.2997 20.168 71.6743 20.168ZM71.7863 18.908C72.2437 18.908 72.6637 18.7913 73.0463 18.558C73.429 18.3247 73.7277 18.0027 73.9423 17.592C74.1663 17.1813 74.2783 16.7287 74.2783 16.234C74.2783 15.73 74.1663 15.2773 73.9423 14.876C73.7277 14.4653 73.429 14.1433 73.0463 13.91C72.6637 13.6767 72.2437 13.56 71.7863 13.56C71.3197 13.56 70.895 13.6767 70.5123 13.91C70.139 14.1433 69.845 14.4653 69.6303 14.876C69.4157 15.2773 69.3083 15.73 69.3083 16.234C69.3083 16.738 69.4157 17.1953 69.6303 17.606C69.845 18.0073 70.139 18.3247 70.5123 18.558C70.895 18.7913 71.3197 18.908 71.7863 18.908Z" fill="#D1A307"/>
</svg>
